<svg width="319" height="142" viewBox="0 0 319 142" fill="none" xmlns="http://www.w3.org/2000/svg">
<g clip-path="url(#clip0_36_302)">
<path d="M64.1224 108.368V95.9204C63.5594 97.172 62.133 98.9779 59.8434 101.35C57.5537 103.723 54.5321 105.859 50.7724 107.758C47.0126 109.657 42.6209 110.61 37.61 110.61C30.0904 110.61 23.5092 108.785 17.8664 105.136C12.2236 101.487 7.83823 96.5867 4.70403 90.4407C1.56983 84.2946 0.00585938 77.4823 0.00585938 69.9913C0.00585938 62.5002 1.56983 55.6879 4.70403 49.5419C7.83823 43.3959 12.2236 38.4828 17.8664 34.8026C23.5092 31.1225 30.0904 29.2793 37.61 29.2793C42.4333 29.2793 46.6685 30.0452 50.3032 31.5708C53.9378 33.1027 56.8844 34.9085 59.1427 37.0007C61.4011 39.093 62.9651 41.0109 63.8409 42.7545V31.5272H92.2364V108.362H64.1224V108.368ZM28.0197 70.0037C28.0197 73.4971 28.833 76.6355 30.4658 79.4065C32.0923 82.1837 34.2756 84.3507 36.9969 85.9074C39.7245 87.4704 42.7461 88.2488 46.0679 88.2488C49.3898 88.2488 52.5553 87.4704 55.189 85.9074C57.8227 84.3507 59.9059 82.1775 61.4386 79.4065C62.9713 76.6292 63.7408 73.4971 63.7408 70.0037C63.7408 66.5104 62.9713 63.3782 61.4386 60.601C59.8997 57.8238 57.8165 55.6443 55.189 54.0502C52.5553 52.4623 49.5149 51.6653 46.0679 51.6653C42.6209 51.6653 39.7245 52.4623 36.9969 54.0502C34.2693 55.6443 32.0923 57.8238 30.4658 60.601C28.833 63.3782 28.0197 66.5104 28.0197 70.0037Z" fill="white"/>
<path d="M94.207 31.5396H107.369V0H135.671V31.5396H152.969V54.9344H135.671V76.3677C135.671 79.5496 136.14 82.1214 137.079 84.0891C138.017 86.0568 139.744 87.0345 142.252 87.0345C143.948 87.0345 145.386 86.6609 146.575 85.9136C147.764 85.1664 148.483 84.6682 148.74 84.4192L158.518 104.632C158.08 105.006 156.716 105.697 154.426 106.693C152.137 107.689 149.24 108.592 145.73 109.408C142.221 110.218 138.305 110.622 133.976 110.622C126.268 110.622 119.906 108.455 114.889 104.121C109.872 99.7873 107.369 93.0933 107.369 84.0455V54.9406H94.207V31.5459V31.5396Z" fill="white"/>
<path d="M219.437 108.368V95.9204C218.874 97.172 217.447 98.9779 215.158 101.35C212.868 103.723 209.847 105.859 206.087 107.758C202.327 109.657 197.935 110.61 192.924 110.61C185.405 110.61 178.824 108.785 173.181 105.136C167.538 101.487 163.153 96.5867 160.018 90.4407C156.884 84.2946 155.32 77.4823 155.32 69.9913C155.32 62.5002 156.884 55.6879 160.018 49.5419C163.153 43.3959 167.538 38.4828 173.181 34.8026C178.824 31.1225 185.405 29.2793 192.924 29.2793C197.748 29.2793 201.983 30.0452 205.618 31.5708C209.252 33.1027 212.199 34.9085 214.457 37.0007C216.716 39.093 218.28 41.0109 219.162 42.7545V31.5272H247.557V108.362H219.443L219.437 108.368ZM183.334 70.0037C183.334 73.4971 184.147 76.6355 185.78 79.4065C187.407 82.1837 189.59 84.3507 192.311 85.9074C195.039 87.4704 198.061 88.2488 201.382 88.2488C204.704 88.2488 207.87 87.4704 210.503 85.9074C213.137 84.3507 215.22 82.1775 216.753 79.4065C218.286 76.6292 219.055 73.4971 219.055 70.0037C219.055 66.5104 218.286 63.3782 216.753 60.601C215.214 57.8238 213.131 55.6443 210.503 54.0502C207.87 52.4623 204.829 51.6653 201.382 51.6653C197.935 51.6653 195.039 52.4623 192.311 54.0502C189.584 55.6443 187.407 57.8238 185.78 60.601C184.147 63.3782 183.334 66.5104 183.334 70.0037Z" fill="white"/>
<path d="M278.293 108.368H249.709V31.5396H278.293V43.4269H277.823C278.324 41.9947 279.544 40.1702 281.489 37.9534C283.429 35.7365 286.156 33.7439 289.666 31.963C293.175 30.1821 297.467 29.2979 302.547 29.2979C306.119 29.2979 309.409 29.8458 312.418 30.9355C315.428 32.0253 317.623 33.0714 319 34.0739L307.908 57.1885C307.032 56.1299 305.481 55.0215 303.254 53.8695C301.026 52.7175 298.255 52.1384 294.933 52.1384C291.111 52.1384 287.958 53.1036 285.487 55.0402C283.01 56.9768 281.195 59.3119 280.032 62.058C278.868 64.8041 278.293 67.3945 278.293 69.823V108.38V108.368Z" fill="white"/>
<path d="M45.793 129.109H46.5249V141.626H45.793V129.109Z" fill="white"/>
<path d="M53.5442 130.573V141.632H52.8311V128.742H53.1126L61.8771 140.175V129.116H62.5902V142.006H62.3087L53.5442 130.573Z" fill="white"/>
<path d="M71.8048 129.782H67.582V129.109H76.7594V129.782H72.5367V141.626H71.8048V129.782Z" fill="white"/>
<path d="M81.752 129.109H87.9453V129.782H82.4839V134.807H86.7254V135.48H82.4839V140.953H88.0391V141.626H81.752V129.109Z" fill="white"/>
<path d="M93.5 129.109H94.2319V140.953H99.5995V141.626H93.5V129.109Z" fill="white"/>
<path d="M104.873 129.109H105.605V141.626H104.873V129.109Z" fill="white"/>
<path d="M111.161 135.412C111.161 131.806 113.976 128.967 117.467 128.967C119.212 128.967 120.883 129.658 122.009 130.891L121.446 131.358C120.451 130.274 118.987 129.677 117.467 129.677C114.389 129.677 111.931 132.199 111.931 135.43C111.931 138.662 114.201 141.072 117.505 141.072C119.081 141.072 120.507 140.512 121.596 139.465V135.767H117.242V135.094H122.328V139.708C121.108 141.035 119.363 141.782 117.486 141.782C113.882 141.782 111.161 138.942 111.161 135.412Z" fill="white"/>
<path d="M128.164 129.11H134.357V129.782H128.896V134.807H133.137V135.48H128.896V140.953H134.451V141.626H128.164V129.11ZM129.009 127.304L131.261 125.548L133.513 127.304L133.119 127.771L131.261 126.351L129.403 127.771L129.009 127.304Z" fill="white"/>
<path d="M140.626 130.573V141.632H139.913V128.742H140.195L148.959 140.175V129.116H149.672V142.006H149.391L140.626 130.573Z" fill="white"/>
<path d="M155.228 135.424C155.228 131.799 158.024 128.96 161.571 128.96C163.316 128.96 164.949 129.651 166.075 130.884L165.512 131.351C164.518 130.268 163.091 129.67 161.571 129.67C158.437 129.67 155.997 132.192 155.997 135.424C155.997 138.655 158.268 141.065 161.571 141.065C163.11 141.065 164.574 140.523 165.681 139.328L166.207 139.776C164.93 141.14 163.223 141.775 161.496 141.775C157.855 141.775 155.228 138.936 155.228 135.424Z" fill="white"/>
<path d="M171.574 129.109H172.306V141.626H171.574V129.109Z" fill="white"/>
<path d="M182.422 128.742H182.703L187.433 141.632H186.644L185.255 137.821H179.832L178.443 141.632H177.673L182.422 128.742ZM185.011 137.142L182.553 130.399L180.076 137.142H185.011Z" fill="white"/>
<path d="M199.481 129.109H203.273C207.251 129.109 210.179 131.762 210.179 135.349C210.179 138.936 207.251 141.626 203.273 141.626H199.481V129.109ZM203.273 140.953C206.82 140.953 209.41 138.581 209.41 135.349C209.41 132.117 206.838 129.782 203.273 129.782H200.213V140.953H203.273Z" fill="white"/>
<path d="M215.734 129.109H216.466V141.626H215.734V129.109Z" fill="white"/>
<path d="M222.021 135.412C222.021 131.806 224.836 128.967 228.327 128.967C230.072 128.967 231.743 129.658 232.869 130.891L232.306 131.358C231.311 130.274 229.847 129.677 228.327 129.677C225.249 129.677 222.79 132.199 222.79 135.43C222.79 138.662 225.061 141.072 228.364 141.072C229.941 141.072 231.367 140.512 232.456 139.465V135.767H228.102V135.094H233.188V139.708C231.968 141.035 230.222 141.782 228.346 141.782C224.742 141.782 222.021 138.942 222.021 135.412Z" fill="white"/>
<path d="M239.025 129.109H239.757V141.626H239.025V129.109Z" fill="white"/>
<path d="M248.972 129.782H244.749V129.109H253.926V129.782H249.704V141.626H248.972V129.782Z" fill="white"/>
<path d="M261.227 128.742H261.508L266.238 141.632H265.449L264.061 137.821H258.637L257.248 141.632H256.479L261.227 128.742ZM263.817 137.142L261.358 130.399L258.881 137.142H263.817Z" fill="white"/>
<path d="M271.605 129.109H272.337V140.953H277.705V141.626H271.605V129.109Z" fill="white"/>
</g>
<defs>
<clipPath id="clip0_36_302">
<rect width="319" height="142" fill="white"/>
</clipPath>
</defs>
</svg>
