<svg width="258" height="197" viewBox="0 0 258 197" fill="none" xmlns="http://www.w3.org/2000/svg">
<g clip-path="url(#clip0_4_3)">
<path d="M124.394 47.3133C120.895 47.3133 117.612 45.9578 115.139 43.4956C112.665 41.0334 111.304 37.7648 111.304 34.2818C111.304 30.7987 112.665 27.5301 115.139 25.0679C120.24 19.9891 128.548 19.9891 133.649 25.0679C136.122 27.5301 137.484 30.7987 137.484 34.2818C137.484 37.7648 136.122 41.0334 133.649 43.4956C131.176 45.9578 127.893 47.3133 124.394 47.3133ZM124.394 28.5252C122.912 28.5252 121.429 29.0829 120.301 30.2067C118.043 32.4544 118.043 36.1091 120.301 38.3482C122.558 40.5959 126.229 40.5959 128.479 38.3482C130.736 36.1005 130.736 32.4458 128.479 30.2067C127.35 29.0829 125.867 28.5252 124.385 28.5252H124.394Z" fill="#FF687A"/>
<path d="M103.048 68.5721C99.5496 68.5721 96.2663 67.2166 93.7931 64.7544C91.3199 62.2922 89.9583 59.0236 89.9583 55.5406C89.9583 52.0575 91.3199 48.7889 93.7931 46.3267C98.8947 41.2479 107.202 41.2479 112.304 46.3267C114.777 48.7889 116.138 52.0575 116.138 55.5406C116.138 59.0236 114.777 62.2922 112.304 64.7544C109.83 67.2166 106.547 68.5721 103.048 68.5721ZM103.048 49.784C101.566 49.784 100.084 50.3417 98.955 51.4655C97.8606 52.5551 97.2574 53.9963 97.2574 55.5406C97.2574 57.0848 97.8606 58.5261 98.955 59.6156C101.213 61.8633 104.884 61.8633 107.133 59.6156C108.227 58.5261 108.831 57.0848 108.831 55.5406C108.831 53.9963 108.227 52.5551 107.133 51.4655C106.004 50.3417 104.522 49.784 103.04 49.784H103.048Z" fill="#BC75E5"/>
<path d="M103.048 26.0545C99.6961 26.0545 96.3439 24.7848 93.7931 22.2454C91.3199 19.7832 89.9583 16.5146 89.9583 13.0315C89.9583 9.54845 91.3199 6.27984 93.7931 3.81766C96.2663 1.35548 99.5496 0 103.048 0C106.547 0 109.83 1.35548 112.304 3.81766C114.777 6.27984 116.138 9.54845 116.138 13.0315C116.138 16.5146 114.777 19.7832 112.304 22.2454C109.753 24.7848 106.401 26.0545 103.048 26.0545ZM98.955 17.098C101.213 19.3457 104.884 19.3457 107.133 17.098C109.391 14.8503 109.391 11.1956 107.133 8.95649C104.875 6.70879 101.204 6.70879 98.955 8.95649C96.6972 11.2042 96.6972 14.8589 98.955 17.098Z" fill="#8198C7"/>
<path d="M81.6941 47.3133C78.1954 47.3133 74.9121 45.9578 72.4389 43.4956C69.9657 41.0334 68.6041 37.7648 68.6041 34.2818C68.6041 30.7987 69.9657 27.5301 72.4389 25.0679C77.5405 19.9891 85.8478 19.9891 90.9494 25.0679C93.4226 27.5301 94.7842 30.7987 94.7842 34.2818C94.7842 37.7648 93.4226 41.0334 90.9494 43.4956C88.4761 45.9578 85.1929 47.3133 81.6941 47.3133ZM81.6941 28.5252C80.2119 28.5252 78.7297 29.0829 77.6008 30.2067C75.343 32.4544 75.343 36.1091 77.6008 38.3482C79.8586 40.5959 83.5297 40.5959 85.7788 38.3482C88.0366 36.1005 88.0366 32.4458 85.7788 30.2067C84.65 29.0829 83.1677 28.5252 81.6855 28.5252H81.6941Z" fill="#47BCA9"/>
<path d="M140.836 145.569C128.203 145.569 118.026 134.862 118.991 122.088C119.792 111.424 128.444 102.82 139.156 102.013C151.996 101.052 162.751 111.184 162.751 123.761V128.865H139.483C136.657 128.865 134.356 126.583 134.356 123.761C134.356 120.947 136.648 118.656 139.483 118.656H151.315C149.212 114.393 144.55 111.596 139.345 112.248C134.071 112.908 129.849 117.172 129.263 122.431C128.479 129.423 133.977 135.368 140.845 135.368C143.37 135.368 145.765 134.579 147.79 133.086L153.9 141.279C150.1 144.085 145.593 145.569 140.845 145.569H140.836ZM126.135 154.122H119.835C113.76 154.122 108.813 149.198 108.813 143.15V81.3377H97.2832V143.15C97.2832 155.529 107.4 165.601 119.835 165.601H126.135V154.122ZM258 110.24V98.7617H240.679V81.3463H229.149V98.7617H221.074V110.24H229.149V130.401C229.149 142.781 239.265 152.852 251.701 152.852H258V141.374H251.701C245.625 141.374 240.679 136.449 240.679 130.401V110.24H258ZM19.6049 130.401V110.24H36.9261V98.7617H19.6049V81.3463H8.07462V98.7617H0V110.24H8.07462V130.401C8.07462 142.781 18.1916 152.852 30.6267 152.852H36.9261V141.374H30.6267C24.5513 141.374 19.6049 136.449 19.6049 130.401ZM85.7788 99.1735V146.555H74.2486V143.338C70.9911 145.166 67.2339 146.212 63.2268 146.212C50.7917 146.212 40.6747 136.14 40.6747 123.761C40.6747 111.381 50.7917 101.31 63.2268 101.31C67.2253 101.31 70.9825 102.356 74.2486 104.184V99.1735H85.7788ZM74.2486 123.761C74.2486 117.713 69.3021 112.788 63.2268 112.788C57.1514 112.788 52.205 117.713 52.205 123.761C52.205 129.809 57.1514 134.733 63.2268 134.733C69.3021 134.733 74.2486 129.809 74.2486 123.761ZM194.239 101.31C190.24 101.31 186.483 102.356 183.217 104.184V99.1735H171.687V122.757H171.713C171.696 123.092 171.687 123.426 171.687 123.761V145.981H183.217V123.761C183.217 117.713 188.164 112.788 194.239 112.788C200.314 112.788 205.261 117.713 205.261 123.761V145.981H216.791V123.761C216.791 111.381 206.674 101.31 194.239 101.31Z" fill="#114488"/>
<path d="M29.0497 186.551C29.0497 184.801 29.2996 183.282 29.808 181.978C30.3078 180.683 30.9714 179.593 31.7814 178.718C32.5915 177.843 33.5222 177.191 34.5735 176.771C35.6162 176.35 36.6934 176.136 37.8051 176.136C40.2611 176.136 42.2173 176.934 43.6736 178.529C45.13 180.125 45.8625 182.579 45.8625 185.899C45.8625 186.105 45.8625 186.311 45.8452 186.516C45.828 186.722 45.8108 186.92 45.7849 187.091H31.7211C31.7987 189.536 32.4019 191.406 33.5394 192.719C34.6769 194.032 36.4866 194.684 38.9598 194.684C40.33 194.684 41.4158 194.555 42.2173 194.298C43.0187 194.04 43.5961 193.826 43.958 193.646L44.4233 195.808C44.0614 196.013 43.3806 196.254 42.3896 196.537C41.3986 196.82 40.2266 196.957 38.8823 196.957C37.1243 196.957 35.6249 196.7 34.3925 196.185C33.1516 195.67 32.1348 194.95 31.3333 194.023C30.5319 193.097 29.9545 191.998 29.5926 190.729C29.2307 189.459 29.0497 188.061 29.0497 186.542V186.551ZM43.2686 184.972C43.2169 182.888 42.7257 181.266 41.795 180.116C40.8643 178.958 39.5458 178.384 37.8482 178.384C36.9433 178.384 36.1333 178.564 35.4267 178.924C34.72 179.284 34.0996 179.765 33.5653 180.374C33.0396 180.974 32.626 181.678 32.3243 182.476C32.0313 183.274 31.8504 184.106 31.7987 184.981H43.26L43.2686 184.972Z" fill="#114488"/>
<path d="M72.0856 195.928C71.3359 196.185 70.3793 196.425 69.216 196.657C68.0526 196.888 66.579 197 64.8038 197C63.3302 197 61.9945 196.76 60.7967 196.288C59.5988 195.816 58.5647 195.121 57.6943 194.229C56.8326 193.328 56.1604 192.239 55.6778 190.952C55.2039 189.665 54.9626 188.215 54.9626 186.594C54.9626 185.075 55.1608 183.685 55.5658 182.407C55.9622 181.137 56.5568 180.039 57.3324 179.113C58.108 178.186 59.0559 177.466 60.1762 176.951C61.2965 176.436 62.5805 176.179 64.0282 176.179C65.3467 176.179 66.4842 176.367 67.458 176.736C68.4318 177.105 69.1298 177.466 69.5693 177.8V167.076L72.0856 166.613V195.919V195.928ZM69.5607 180.228C69.328 180.048 69.035 179.859 68.6903 179.653C68.3456 179.447 67.932 179.259 67.4666 179.078C67.0013 178.898 66.5014 178.752 65.9585 178.632C65.4156 178.512 64.8469 178.461 64.2523 178.461C63.0113 178.461 61.9773 178.675 61.1327 179.113C60.2968 179.55 59.6161 180.134 59.099 180.871C58.5819 181.601 58.2114 182.467 57.9787 183.454C57.746 184.44 57.634 185.496 57.634 186.594C57.634 189.219 58.2889 191.226 59.6074 192.625C60.9259 194.023 62.6666 194.727 64.8383 194.727C66.0792 194.727 67.0788 194.666 67.8372 194.555C68.5955 194.443 69.1729 194.315 69.5607 194.186V180.228Z" fill="#114488"/>
<path d="M98.8085 195.85C98.0588 196.056 97.0506 196.288 95.7838 196.545C94.517 196.803 92.9659 196.931 91.1389 196.931C89.6395 196.931 88.39 196.717 87.3817 196.279C86.3735 195.842 85.5634 195.224 84.9429 194.426C84.3225 193.628 83.8744 192.668 83.6072 191.535C83.3401 190.403 83.2022 189.159 83.2022 187.795V176.616H85.7185V186.988C85.7185 188.404 85.8219 189.596 86.0288 190.574C86.2356 191.552 86.5717 192.342 87.037 192.942C87.5024 193.543 88.1056 193.98 88.8381 194.255C89.5706 194.521 90.4668 194.658 91.5267 194.658C92.716 194.658 93.7501 194.598 94.629 194.469C95.508 194.34 96.0595 194.229 96.2922 194.126V176.616H98.8085V195.859V195.85Z" fill="#114488"/>
<path d="M118.439 196.966C116.888 196.966 115.518 196.717 114.337 196.236C113.148 195.747 112.166 195.044 111.373 194.135C110.58 193.225 109.985 192.127 109.572 190.857C109.158 189.588 108.951 188.181 108.951 186.637C108.951 185.092 109.167 183.642 109.589 182.356C110.011 181.069 110.632 179.962 111.425 179.036C112.226 178.109 113.191 177.397 114.329 176.899C115.466 176.402 116.742 176.144 118.163 176.144C119.249 176.144 120.258 176.239 121.205 176.41C122.145 176.591 122.877 176.822 123.394 177.105L122.739 179.267C122.222 179.01 121.645 178.804 120.999 178.649C120.352 178.495 119.491 178.418 118.405 178.418C116.181 178.418 114.501 179.13 113.346 180.554C112.2 181.978 111.623 184.003 111.623 186.628C111.623 187.812 111.752 188.893 112.011 189.888C112.269 190.875 112.691 191.724 113.269 192.436C113.846 193.139 114.596 193.697 115.518 194.092C116.431 194.495 117.552 194.692 118.87 194.692C119.956 194.692 120.861 194.572 121.602 194.323C122.343 194.075 122.877 193.869 123.213 193.688L123.756 195.85C123.291 196.108 122.558 196.357 121.567 196.605C120.576 196.846 119.534 196.974 118.448 196.974L118.439 196.966Z" fill="#114488"/>
<path d="M138.742 176.144C140.061 176.144 141.172 176.333 142.094 176.702C143.008 177.071 143.758 177.586 144.318 178.246C144.886 178.898 145.3 179.679 145.559 180.58C145.817 181.481 145.946 182.459 145.946 183.514V196.082C145.688 196.159 145.317 196.245 144.826 196.331C144.335 196.425 143.766 196.52 143.12 196.623C142.474 196.725 141.758 196.811 140.974 196.871C140.19 196.931 139.38 196.966 138.553 196.966C137.493 196.966 136.519 196.846 135.631 196.623C134.744 196.391 133.968 196.022 133.304 195.524C132.65 195.027 132.132 194.383 131.753 193.594C131.383 192.813 131.193 191.853 131.193 190.72C131.193 189.588 131.4 188.713 131.814 187.941C132.227 187.168 132.805 186.534 133.554 186.036C134.304 185.538 135.192 185.17 136.226 184.938C137.26 184.706 138.38 184.595 139.595 184.595C139.957 184.595 140.336 184.612 140.741 184.655C141.138 184.698 141.526 184.749 141.905 184.809C142.275 184.878 142.603 184.938 142.87 184.998C143.137 185.067 143.327 185.118 143.43 185.17V183.934C143.43 183.239 143.378 182.562 143.275 181.909C143.172 181.257 142.947 180.666 142.594 180.134C142.249 179.61 141.758 179.181 141.121 178.864C140.491 178.547 139.656 178.384 138.621 178.384C137.148 178.384 136.053 178.486 135.33 178.692C134.606 178.898 134.08 179.061 133.744 179.19L133.399 176.994C133.839 176.788 134.52 176.599 135.433 176.419C136.346 176.239 137.449 176.153 138.742 176.153V176.144ZM138.975 194.727C139.957 194.727 140.81 194.692 141.551 194.632C142.284 194.572 142.913 194.486 143.43 194.383V187.366C143.146 187.237 142.698 187.1 142.077 186.963C141.457 186.825 140.604 186.748 139.518 186.748C138.897 186.748 138.251 186.791 137.579 186.885C136.907 186.98 136.286 187.168 135.717 187.46C135.149 187.752 134.683 188.164 134.321 188.678C133.959 189.193 133.778 189.871 133.778 190.72C133.778 191.467 133.899 192.093 134.149 192.608C134.39 193.122 134.744 193.534 135.192 193.843C135.64 194.152 136.183 194.375 136.82 194.521C137.449 194.658 138.173 194.735 138.966 194.735L138.975 194.727Z" fill="#114488"/>
<path d="M159.424 176.608H167.404V178.727H159.424V189.33C159.424 190.463 159.519 191.381 159.717 192.084C159.907 192.788 160.191 193.337 160.553 193.723C160.915 194.109 161.354 194.366 161.872 194.495C162.389 194.624 162.957 194.684 163.578 194.684C164.638 194.684 165.491 194.564 166.137 194.315C166.784 194.075 167.283 193.843 167.645 193.637L168.266 195.722C167.904 195.953 167.275 196.219 166.37 196.511C165.465 196.803 164.483 196.957 163.423 196.957C162.182 196.957 161.148 196.794 160.303 196.477C159.467 196.159 158.795 195.67 158.287 195.01C157.787 194.358 157.425 193.543 157.218 192.565C157.011 191.587 156.908 190.428 156.908 189.09V170.74L159.424 170.276V176.599V176.608Z" fill="#114488"/>
<path d="M179.83 170.594C179.83 171.186 179.649 171.658 179.288 172.001C178.926 172.344 178.486 172.524 177.969 172.524C177.452 172.524 177.013 172.352 176.651 172.001C176.289 171.658 176.108 171.186 176.108 170.594C176.108 170.002 176.289 169.53 176.651 169.187C177.013 168.844 177.452 168.663 177.969 168.663C178.486 168.663 178.926 168.835 179.288 169.187C179.649 169.53 179.83 170.002 179.83 170.594ZM179.253 196.545H176.737V176.608H179.253V196.545Z" fill="#114488"/>
<path d="M207.682 186.594C207.682 188.164 207.458 189.588 207.002 190.875C206.553 192.161 205.916 193.251 205.106 194.152C204.296 195.053 203.33 195.747 202.219 196.254C201.107 196.751 199.883 197.009 198.539 197.009C197.195 197.009 195.971 196.76 194.859 196.254C193.748 195.756 192.791 195.053 191.973 194.152C191.163 193.251 190.525 192.161 190.077 190.875C189.629 189.588 189.396 188.164 189.396 186.594C189.396 185.024 189.62 183.6 190.077 182.313C190.525 181.026 191.163 179.928 191.973 179.018C192.783 178.109 193.748 177.397 194.859 176.899C195.971 176.402 197.195 176.144 198.539 176.144C199.883 176.144 201.107 176.393 202.219 176.899C203.33 177.397 204.287 178.109 205.106 179.018C205.924 179.928 206.553 181.026 207.002 182.313C207.45 183.6 207.682 185.024 207.682 186.594ZM205.011 186.594C205.011 184.097 204.434 182.115 203.27 180.64C202.107 179.164 200.53 178.426 198.548 178.426C196.566 178.426 194.989 179.164 193.825 180.64C192.662 182.115 192.085 184.106 192.085 186.594C192.085 189.082 192.662 191.063 193.825 192.53C194.989 193.997 196.566 194.727 198.548 194.727C200.53 194.727 202.115 193.997 203.27 192.53C204.425 191.063 205.011 189.082 205.011 186.594Z" fill="#114488"/>
<path d="M217.825 177.303C218.575 177.097 219.583 176.865 220.85 176.608C222.117 176.35 223.668 176.222 225.495 176.222C227.02 176.222 228.287 176.445 229.312 176.874C230.329 177.311 231.148 177.937 231.751 178.744C232.354 179.55 232.794 180.528 233.052 181.652C233.311 182.785 233.44 184.029 233.44 185.393V196.537H230.924V186.199C230.924 184.783 230.829 183.591 230.631 182.613C230.441 181.635 230.114 180.837 229.666 180.219C229.217 179.602 228.623 179.156 227.882 178.89C227.149 178.624 226.219 178.486 225.116 178.486C223.926 178.486 222.901 178.555 222.039 178.675C221.177 178.804 220.609 178.924 220.35 179.018V196.528H217.834V177.285L217.825 177.303Z" fill="#114488"/>
</g>
<defs>
<clipPath id="clip0_4_3">
<rect width="258" height="197" fill="white"/>
</clipPath>
</defs>
</svg>
