<svg width="28" height="27" viewBox="0 0 28 27" fill="none" xmlns="http://www.w3.org/2000/svg">
<g clip-path="url(#clip0_487_305)">
<path d="M25.4014 8.41308L23.2535 10.9306C23.5202 11.8424 23.6645 12.807 23.6645 13.8052C23.6645 19.4944 19.0079 24.1225 13.2804 24.1225C7.5528 24.1225 2.89767 19.4944 2.89767 13.8037C2.89767 8.11303 7.55574 3.48789 13.2818 3.48789C15.1218 3.48789 16.8527 3.96651 18.3524 4.80372L20.2527 2.5775C18.2257 1.329 15.8363 0.608887 13.2818 0.608887C5.95738 0.608887 0 6.5279 0 13.8037C0 21.0795 5.95738 27 13.2818 27C20.6063 27 26.5637 21.081 26.5637 13.8037C26.5637 11.8849 26.1483 10.0582 25.4028 8.41162L25.4014 8.41308Z" fill="white"/>
<path d="M14.7459 18.4259L8.18604 11.9083L11.3739 8.7424L14.4734 11.8219L24.5615 0L27.9998 2.89657L14.7459 18.4259Z" fill="white"/>
</g>
<defs>
<clipPath id="clip0_487_305">
<rect width="28" height="27" fill="white"/>
</clipPath>
</defs>
</svg>
