<svg width="60" height="36" viewBox="0 0 60 36" fill="none" xmlns="http://www.w3.org/2000/svg">
<path d="M58.4309 10.8412L31.5744 0.38623C30.2514 -0.128743 28.7943 -0.128743 27.4713 0.38623L0.614589 10.8412C0.243465 10.9853 0 11.3382 0 11.7307C0 12.1232 0.243712 12.4761 0.614589 12.6204L27.471 23.0757C28.1325 23.333 28.8276 23.4618 29.5227 23.4618C30.2178 23.4618 30.9126 23.333 31.5744 23.0757L58.4306 12.6202C58.8017 12.4756 59.0452 12.123 59.0452 11.7305C59.0452 11.338 58.8017 10.9853 58.4309 10.8412ZM30.8591 21.2965C29.9973 21.6319 29.0481 21.6319 28.1864 21.2962L3.61518 11.731L28.1864 2.16567C29.0481 1.83029 29.9973 1.83029 30.8591 2.16567L55.4303 11.731L30.8591 21.2965Z" fill="#47BCA9"/>
<path d="M48.3268 16.1766V28.6387C48.3268 29.9153 47.5727 31.0947 46.4055 31.6428C41.7091 33.8485 35.7133 35.0631 29.5227 35.0631C23.3321 35.0631 17.3364 33.8485 12.6399 31.6428C11.4727 31.0947 10.7186 29.9156 10.7186 28.6387V16.1766H12.6629V28.6387C12.6629 29.1821 12.9827 29.6835 13.4772 29.9158C18.0505 32.0634 23.7875 33.1376 29.5227 33.1379C35.2592 33.1381 40.994 32.0639 45.5682 29.9158C46.0628 29.6835 46.3825 29.1821 46.3825 28.6387V16.1766H48.3268Z" fill="#47BCA9"/>
<path d="M46.3825 22.7879V25.8028C41.6898 28.0015 35.7032 29.2125 29.5227 29.2125C23.3423 29.2125 17.3556 28.0017 12.6629 25.8028V22.7879C12.6629 23.3313 12.9827 23.8326 13.4772 24.065C18.0505 26.2128 23.7875 27.2868 29.5227 27.287C35.2592 27.2873 40.994 26.2131 45.5682 24.065C46.0628 23.8326 46.3825 23.3313 46.3825 22.7879Z" fill="#47BCA9"/>
<path d="M56.4456 12.6646V18.8239C56.1799 18.6146 55.8434 18.4892 55.4774 18.4885H55.4735C55.4428 18.4885 55.4125 18.4892 55.3824 18.4909C55.0502 18.5099 54.746 18.6316 54.5013 18.8239V12.6646H56.4456Z" fill="#47BCA9"/>
<path d="M59.8833 32.3675L56.9565 23.1478L56.3646 21.2826C56.1118 21.4566 55.8046 21.5586 55.4735 21.5586C55.111 21.5586 54.7774 21.4366 54.5122 21.2318L53.9151 23.1123L50.977 32.3672C50.7839 32.9755 50.8318 33.6271 51.1123 34.2016C51.3931 34.7761 51.8795 35.2201 52.4828 35.4522C53.4334 35.8175 54.432 36 55.4305 36C56.4291 36 57.4276 35.8175 58.378 35.4522C58.9812 35.2201 59.4679 34.7761 59.7484 34.2016C60.0289 33.6271 60.0763 32.9758 59.8833 32.3675ZM57.6703 33.6699C56.2256 34.2249 54.6344 34.2249 53.1897 33.6696C52.8954 33.5566 52.7383 33.2351 52.8326 32.9381L55.43 24.7561L58.0274 32.9381C58.1217 33.2351 57.9652 33.5566 57.6703 33.6699Z" fill="#47BCA9"/>
<path d="M56.4456 16.7098C56.1369 16.622 55.8108 16.5749 55.4735 16.5749C55.1362 16.5749 54.81 16.622 54.5011 16.71C53.0403 17.1258 51.9694 18.4537 51.9694 20.0234C51.9694 21.3747 52.763 22.5468 53.9151 23.1123C54.3848 23.3427 54.9142 23.4722 55.4735 23.4722C56.0034 23.4722 56.5058 23.3561 56.9565 23.1478C58.1491 22.5971 58.9773 21.4036 58.9773 20.0234C58.9773 18.4537 57.9061 17.1256 56.4456 16.7098ZM56.3646 21.2826C56.1118 21.4566 55.8046 21.5586 55.4735 21.5586C55.111 21.5586 54.7774 21.4366 54.5122 21.2318C54.1482 20.9503 53.9137 20.5134 53.9137 20.0237C53.9137 19.534 54.1435 19.1058 54.5013 18.8239C54.746 18.6316 55.0502 18.5099 55.3824 18.4909C55.4125 18.4892 55.4428 18.4885 55.4735 18.4885H55.4774C55.8434 18.4892 56.1799 18.6146 56.4456 18.8239C56.8034 19.1053 57.0328 19.5386 57.0328 20.0237C57.0328 20.5442 56.7683 21.005 56.3646 21.2826Z" fill="#47BCA9"/>
</svg>
