<svg width="101" height="94" viewBox="0 0 101 94" fill="none" xmlns="http://www.w3.org/2000/svg">
<g clip-path="url(#clip0_19_175)">
<path d="M19.2948 11.277C20.1541 5.98363 16.5595 0.995931 11.2661 0.136691C5.97268 -0.722549 0.984979 2.87205 0.125738 8.16545C-0.733502 13.4589 2.8611 18.4466 8.1545 19.3058C13.4479 20.165 18.4356 16.5704 19.2948 11.277Z" fill="#114488"/>
<path d="M11.28 11.3501C14.07 34.3901 16.23 57.1901 18.27 80.4801L17.44 80.1601L83.15 20.0201L84.02 22.9601C59.59 19.4001 35.6 15.5201 11.28 11.3501ZM8.14001 8.08008C34.74 11.7801 61.65 15.8301 88.13 20.1901L85.41 22.5501L18.11 80.9101L17.41 81.5201C14.01 57.2901 10.77 32.5801 8.15001 8.08008H8.14001Z" fill="#114488"/>
<path d="M84.2801 37.2501C93.1 37.2501 100.25 30.1 100.25 21.2801C100.25 12.4601 93.1 5.31006 84.2801 5.31006C75.4601 5.31006 68.3101 12.4601 68.3101 21.2801C68.3101 30.1 75.4601 37.2501 84.2801 37.2501Z" fill="#565656"/>
<path d="M30.1289 83.4511C31.7388 76.63 27.5144 69.7953 20.6933 68.1854C13.8722 66.5755 7.03751 70.7999 5.42759 77.621C3.81767 84.4421 8.04215 91.2768 14.8632 92.8867C21.6843 94.4966 28.519 90.2721 30.1289 83.4511Z" fill="white"/>
</g>
<defs>
<clipPath id="clip0_19_175">
<rect width="100.26" height="93.22" fill="white"/>
</clipPath>
</defs>
</svg>
