<svg width="104" height="79" viewBox="0 0 104 79" fill="none" xmlns="http://www.w3.org/2000/svg">
<g clip-path="url(#clip0_19_156)">
<path fill-rule="evenodd" clip-rule="evenodd" d="M18.7072 6.53955V46.0565H84.4593V6.53955H18.7072Z" fill="#114488"/>
<path fill-rule="evenodd" clip-rule="evenodd" d="M85.6948 48.5597H17.4715C16.7733 48.5597 16.236 47.9921 16.236 47.3229V5.26893C16.236 4.57007 16.803 4.03217 17.4715 4.03217H85.6906C86.3888 4.03217 86.9262 4.59972 86.9262 5.26893V47.3229C86.96 47.9921 86.393 48.5597 85.6948 48.5597ZM12.1696 1.10122V52.6342H90.9587V1.10122C90.9587 0.499786 90.4594 0 89.8586 0H13.2697C12.6731 0 12.1696 0.499786 12.1696 1.10122Z" fill="#114488"/>
<path fill-rule="evenodd" clip-rule="evenodd" d="M91.5596 55.1035H11.6364L1.00287 72.5579H102.934L91.5596 55.1035ZM48.9492 60.3767C48.9492 61.0755 48.3821 61.6134 47.7136 61.6134H45.746C45.0478 61.6134 44.5104 61.0459 44.5104 60.3767C44.5104 59.7075 45.0774 59.1399 45.746 59.1399H47.7136C48.3821 59.1399 48.9492 59.7075 48.9492 60.3767ZM39.1788 60.3767C39.1788 61.0755 38.6118 61.6134 37.9432 61.6134H35.9756C35.2774 61.6134 34.74 61.0459 34.74 60.3767C34.74 59.7075 35.307 59.1399 35.9756 59.1399H37.9432C38.6118 59.1399 39.1788 59.7075 39.1788 60.3767ZM29.4084 60.3767C29.4084 61.0755 28.8414 61.6134 28.1729 61.6134H26.2095C25.5113 61.6134 24.9739 61.0459 24.9739 60.3767C24.9739 59.7075 25.5409 59.1399 26.2095 59.1399H28.1771C28.8414 59.1399 29.4084 59.7075 29.4084 60.3767ZM19.6381 60.3767C19.6381 61.0755 19.0711 61.6134 18.4025 61.6134H16.401C15.7028 61.6134 15.1655 61.0459 15.1655 60.3767C15.1655 59.7075 15.7325 59.1399 16.401 59.1399H18.3686C19.0711 59.1399 19.6381 59.7075 19.6381 60.3767ZM13.5067 66.048C14.2049 66.048 14.7423 66.6155 14.7423 67.2847C14.7423 67.9539 14.1753 68.5215 13.5067 68.5215H11.5391C10.8409 68.5215 10.3035 67.9539 10.3035 67.2847C10.3035 66.6155 10.8706 66.048 11.5391 66.048H13.5067ZM55.4825 61.6431C54.7843 61.6431 54.2469 61.0755 54.2469 60.4063C54.2469 59.7371 54.8139 59.1696 55.4825 59.1696H57.4501C58.1483 59.1696 58.6857 59.7371 58.6857 60.4063C58.6857 61.0755 58.1187 61.6431 57.4501 61.6431H55.4825ZM78.658 67.2847C78.658 66.5859 79.225 66.048 79.8936 66.048H81.8612C82.5594 66.048 83.0968 66.6155 83.0968 67.2847C83.0968 67.9539 82.5298 68.5215 81.8612 68.5215H79.8936C79.225 68.5215 78.658 67.9836 78.658 67.2847ZM89.6597 68.5215C88.9615 68.5215 88.4241 67.9539 88.4241 67.2847C88.4241 66.6155 88.9911 66.048 89.6597 66.048H91.6273C92.3255 66.048 92.8629 66.6155 92.8629 67.2847C92.8629 67.9539 92.2959 68.5215 91.6273 68.5215H89.6597ZM40.8121 66.048H62.3205C63.0187 66.048 63.556 66.6155 63.556 67.2847C63.556 67.9539 62.989 68.5215 62.3205 68.5215H40.8121C40.1139 68.5215 39.5765 67.9539 39.5765 67.2847C39.5808 66.5816 40.1478 66.048 40.8121 66.048ZM34.2788 67.2847C34.2788 67.9836 33.7118 68.5215 33.0432 68.5215H31.0756C30.3774 68.5215 29.84 67.9539 29.84 67.2847C29.84 66.6155 30.407 66.048 31.0756 66.048H33.0432C33.7118 66.048 34.2788 66.5816 34.2788 67.2847ZM24.5084 67.2847C24.5084 67.9836 23.9414 68.5215 23.2729 68.5215H21.3053C20.6071 68.5215 20.0697 67.9539 20.0697 67.2847C20.0697 66.6155 20.6367 66.048 21.3053 66.048H23.2729C23.9753 66.048 24.5084 66.5816 24.5084 67.2847ZM70.1232 68.5215C69.425 68.5215 68.8876 67.9539 68.8876 67.2847C68.8876 66.6155 69.4547 66.048 70.1232 66.048H72.0908C72.789 66.048 73.3264 66.6155 73.3264 67.2847C73.3264 67.9539 72.7594 68.5215 72.0908 68.5215H70.1232ZM65.2528 61.6431C64.5547 61.6431 64.0173 61.0755 64.0173 60.4063C64.0173 59.7371 64.5843 59.1696 65.2528 59.1696H67.2205C67.9186 59.1696 68.456 59.7371 68.456 60.4063C68.456 61.0755 67.889 61.6431 67.2205 61.6431H65.2528ZM75.0232 61.6431C74.325 61.6431 73.7876 61.0755 73.7876 60.4063C73.7876 59.7371 74.3546 59.1696 75.0232 59.1696H76.9908C77.689 59.1696 78.2264 59.7371 78.2264 60.4063C78.2264 61.0755 77.6594 61.6431 76.9908 61.6431H75.0232ZM84.7936 61.6431C84.0954 61.6431 83.558 61.0755 83.558 60.4063C83.558 59.7371 84.125 59.1696 84.7936 59.1696H86.7612C87.4594 59.1696 87.9968 59.7371 87.9968 60.4063C87.9968 61.0755 87.4297 61.6431 86.7612 61.6431H84.7936Z" fill="#114488"/>
<path fill-rule="evenodd" clip-rule="evenodd" d="M104 75.061H0V78.5341C0 78.801 0.198877 79 0.465457 79H103.496C103.763 79 103.962 78.801 103.962 78.5341L104 75.061Z" fill="#114488"/>
</g>
<defs>
<clipPath id="clip0_19_156">
<rect width="104" height="79" fill="white"/>
</clipPath>
</defs>
</svg>
