<svg width="60" height="18" viewBox="0 0 60 18" fill="none" xmlns="http://www.w3.org/2000/svg">
<g clip-path="url(#clip0_163_2)">
<path d="M15.3662 15.369C18.8769 11.8583 18.8769 6.14448 15.3662 2.63377C11.8555 -0.876946 6.14167 -0.876946 2.63096 2.63377C-0.879754 6.14448 -0.879754 11.8583 2.63096 15.369C6.14167 18.8797 11.8555 18.8797 15.3662 15.369ZM6.18394 6.18675C7.73721 4.63347 10.2626 4.63347 11.8132 6.18675C13.3665 7.74002 13.3639 10.2654 11.8132 11.816C10.2626 13.3667 7.73457 13.3667 6.18394 11.816C4.63067 10.2628 4.63067 7.73738 6.18394 6.18675Z" fill="#114488"/>
</g>
<g clip-path="url(#clip1_163_2)">
<path d="M36.3662 15.369C39.8769 11.8583 39.8769 6.14448 36.3662 2.63377C32.8555 -0.876946 27.1417 -0.876946 23.631 2.63377C20.1202 6.14448 20.1202 11.8583 23.631 15.369C27.1417 18.8797 32.8555 18.8797 36.3662 15.369ZM27.1839 6.18675C28.7372 4.63347 31.2626 4.63347 32.8132 6.18675C34.3665 7.74002 34.3639 10.2654 32.8132 11.816C31.2626 13.3667 28.7346 13.3667 27.1839 11.816C25.6307 10.2628 25.6307 7.73738 27.1839 6.18675Z" fill="#114488"/>
</g>
<g clip-path="url(#clip2_163_2)">
<path d="M57.3662 15.369C60.8769 11.8583 60.8769 6.14448 57.3662 2.63377C53.8555 -0.876946 48.1417 -0.876946 44.631 2.63377C41.1202 6.14448 41.1202 11.8583 44.631 15.369C48.1417 18.8797 53.8555 18.8797 57.3662 15.369ZM48.1839 6.18675C49.7372 4.63347 52.2626 4.63347 53.8132 6.18675C55.3665 7.74002 55.3639 10.2654 53.8132 11.816C52.2626 13.3667 49.7346 13.3667 48.1839 11.816C46.6307 10.2628 46.6307 7.73738 48.1839 6.18675Z" fill="#114488"/>
</g>
<defs>
<clipPath id="clip0_163_2">
<rect width="18" height="18" fill="white"/>
</clipPath>
<clipPath id="clip1_163_2">
<rect width="18" height="18" fill="white" transform="translate(21)"/>
</clipPath>
<clipPath id="clip2_163_2">
<rect width="18" height="18" fill="white" transform="translate(42)"/>
</clipPath>
</defs>
</svg>
