<svg width="37" height="36" viewBox="0 0 37 36" fill="none" xmlns="http://www.w3.org/2000/svg">
<g clip-path="url(#clip0_20_234)">
<path d="M21.1533 1.10786L26.8217 6.96924C27.0996 7.25702 27.4219 7.49574 27.7771 7.67789L35.0053 11.3883C36.815 12.3174 37.5246 14.5632 36.5839 16.3814L32.8256 23.6467C32.6414 24.0027 32.5156 24.387 32.4539 24.7846L31.1992 32.8859C30.8851 34.9137 28.9932 36.2911 26.9927 35.9476L19.0007 34.576C18.6085 34.5086 18.2089 34.507 17.8159 34.5702L9.81156 35.866C7.80781 36.1904 5.92821 34.7956 5.63303 32.7653L4.45232 24.6532C4.39476 24.2556 4.27225 23.8697 4.09136 23.512L0.400408 16.2117C-0.52377 14.3843 0.206363 12.1452 2.0243 11.2336L9.28616 7.59139C9.64219 7.41256 9.96696 7.17634 10.2473 6.89188L15.9708 1.08291C17.4031 -0.370996 19.7341 -0.360183 21.1533 1.10703V1.10786Z" fill="#47BCA9"/>
<path opacity="0.3" d="M27.2164 35.6388L19.2244 34.2681C18.8322 34.2007 18.4326 34.199 18.0396 34.2622L10.0352 35.5581C8.03146 35.8825 6.15186 34.4876 5.85669 32.4573L4.67597 24.3452C4.61842 23.9476 4.49591 23.5617 4.31502 23.2041L0.624062 15.9037C-0.0148044 14.6403 0.152107 13.1889 0.907729 12.106C-0.046871 13.2072 -0.300116 14.8258 0.400418 16.2115L4.0922 23.5118C4.27308 23.8695 4.39477 24.2554 4.45315 24.653L5.63386 32.7651C5.92904 34.7962 7.80864 36.1902 9.8124 35.8659L17.8167 34.57C18.2089 34.5068 18.6094 34.5084 19.0016 34.5758L26.9936 35.9465C28.5097 36.2069 29.9593 35.4766 30.7116 34.2265C29.9182 35.2803 28.6002 35.8758 27.2172 35.6388H27.2164Z" fill="#FFF0B9"/>
<path opacity="0.3" d="M27.3413 35.5278L19.3493 34.1562C18.9571 34.0888 18.5575 34.0872 18.1645 34.1504L10.1602 35.4462C8.15644 35.7706 6.27684 34.3758 5.98166 32.3455L4.80095 24.2334C4.74339 23.8358 4.62088 23.4499 4.43999 23.0922L0.74986 15.7927C0.105238 14.5176 0.280371 13.0513 1.05408 11.9658C-0.0115177 13.0654 -0.332184 14.763 0.401238 16.2128L4.09302 23.5131C4.2739 23.8707 4.39559 24.2567 4.45397 24.6542L5.63468 32.7663C5.92986 34.7975 7.80946 36.1915 9.81322 35.8671L17.8175 34.5712C18.2097 34.508 18.6102 34.5097 19.0024 34.5771L26.9944 35.9486C28.3946 36.189 29.7283 35.5752 30.5184 34.4972C29.7135 35.309 28.5508 35.7357 27.343 35.5286L27.3413 35.5278Z" fill="#FFF85C"/>
<path style="mix-blend-mode:multiply" opacity="0.2" d="M29.7381 33.1404L21.7461 31.7697C21.3539 31.7023 20.9543 31.7007 20.5613 31.7639L12.557 33.0597C10.5532 33.3841 8.67362 31.9893 8.37844 29.959L7.19773 21.8469C7.14017 21.4493 7.01766 21.0633 6.83677 20.7057L3.14499 13.4054C2.72155 12.5686 2.65988 11.6487 2.87695 10.8062L2.02348 11.2345C0.205549 12.1461 -0.525406 14.3852 0.398771 16.2126L4.09055 23.5129C4.27144 23.8705 4.39313 24.2565 4.4515 24.654L5.63222 32.7661C5.92739 34.7973 7.80699 36.1913 9.81075 35.8669L17.8151 34.571C18.2073 34.5078 18.6077 34.5095 18.9999 34.5769L26.9919 35.9484C28.9192 36.2786 30.7314 35.0061 31.1433 33.0997C30.6944 33.202 30.2199 33.2236 29.7381 33.1413V33.1404Z" fill="url(#paint0_linear_20_234)"/>
<path opacity="0.1" d="M30.6845 34.2759C30.9402 33.865 31.1203 33.3959 31.1992 32.886L32.4539 24.7847C32.5156 24.3872 32.6406 24.0029 32.8256 23.6469L36.5839 16.3815C37.5246 14.5633 36.815 12.3167 35.0053 11.3885L27.7771 7.67804C27.4227 7.49588 27.1004 7.25634 26.8217 6.96938L21.1533 1.10801C19.7341 -0.359206 17.4031 -0.370019 15.9708 1.08389L10.249 6.8912C9.96861 7.17566 9.64384 7.41271 9.28781 7.5907L4.1777 10.1542C24.2547 11.6156 29.7636 23.7484 30.6853 34.2759H30.6845Z" fill="url(#paint1_linear_20_234)"/>
<path opacity="0.5" d="M18.8889 1.6278C18.8889 1.6278 21.1155 6.57092 22.7492 7.44842C24.383 8.32675 25.6912 7.60229 25.086 6.4761C24.48 5.3499 20.8326 1.5413 20.2242 1.14538C19.6149 0.749467 18.4819 0.445877 18.8889 1.6278Z" fill="url(#paint2_linear_20_234)"/>
<path opacity="0.5" d="M19.9455 1.34097C19.1249 1.17878 22.9786 5.93309 23.6989 6.31569C24.4192 6.6983 24.642 6.47456 24.1322 5.74178C23.6216 5.00901 20.5284 1.45575 19.9463 1.34097H19.9455Z" fill="url(#paint3_linear_20_234)"/>
<path opacity="0.4" d="M26.3645 9.13188C25.4938 9.63094 27.3504 11.1214 28.8287 11.5024C30.3071 11.8842 34.928 13.4221 35.372 13.4246C35.816 13.4271 35.8398 12.3092 34.6402 11.6355C33.4398 10.9626 27.7245 8.3517 26.3645 9.13188Z" fill="url(#paint4_linear_20_234)"/>
<path opacity="0.4" d="M34.2719 11.668C32.1958 10.7264 30.9731 9.9579 28.7449 9.58527C26.5167 9.21265 26.8562 9.92296 29.4528 10.8063C32.0494 11.6888 33.9232 12.2968 34.4766 12.385C35.03 12.4731 35.1944 12.0864 34.2719 11.668Z" fill="url(#paint5_linear_20_234)"/>
<path opacity="0.3" d="M5.86902 25.4575C5.86902 25.4575 6.40182 33.7085 8.07175 34.1701C9.74169 34.6318 17.9113 33.2095 17.9113 33.2095C17.9113 33.2095 10.3921 33.0057 8.87917 32.4368C7.36711 31.8679 5.86902 25.4575 5.86902 25.4575Z" fill="url(#paint6_linear_20_234)"/>
</g>
<defs>
<linearGradient id="paint0_linear_20_234" x1="5.86617" y1="33.9242" x2="24.0526" y2="14.7809" gradientUnits="userSpaceOnUse">
<stop offset="0.21" stop-color="#FF8300"/>
<stop offset="1" stop-color="#FFDD00"/>
</linearGradient>
<linearGradient id="paint1_linear_20_234" x1="32.7143" y1="5.18121" x2="20.5838" y2="18.3934" gradientUnits="userSpaceOnUse">
<stop stop-color="#FFE8C2"/>
<stop offset="1" stop-color="#FFE9C4"/>
</linearGradient>
<linearGradient id="paint2_linear_20_234" x1="20.417" y1="4.99744" x2="22.9043" y2="3.79543" gradientUnits="userSpaceOnUse">
<stop stop-color="#FFE8C2"/>
<stop offset="1" stop-color="#FFE9C4"/>
</linearGradient>
<linearGradient id="paint3_linear_20_234" x1="21.3897" y1="4.44725" x2="22.4003" y2="3.70444" gradientUnits="userSpaceOnUse">
<stop stop-color="#FFE8C2"/>
<stop offset="1" stop-color="#FFE9C4"/>
</linearGradient>
<linearGradient id="paint4_linear_20_234" x1="30.4868" y1="12.5295" x2="31.2333" y2="10.2906" gradientUnits="userSpaceOnUse">
<stop stop-color="#FFE8C2"/>
<stop offset="1" stop-color="#FFE9C4"/>
</linearGradient>
<linearGradient id="paint5_linear_20_234" x1="30.8843" y1="11.5574" x2="31.2916" y2="10.4136" gradientUnits="userSpaceOnUse">
<stop stop-color="#FFE8C2"/>
<stop offset="1" stop-color="#FFE9C4"/>
</linearGradient>
<linearGradient id="paint6_linear_20_234" x1="12.5639" y1="28.6366" x2="7.37107" y2="33.889" gradientUnits="userSpaceOnUse">
<stop stop-color="#FFE8C2"/>
<stop offset="1" stop-color="#FFDA9C"/>
</linearGradient>
<clipPath id="clip0_20_234">
<rect width="37" height="36" fill="white"/>
</clipPath>
</defs>
</svg>
