<svg width="68" height="92" viewBox="0 0 68 92" fill="none" xmlns="http://www.w3.org/2000/svg">
<g clip-path="url(#clip0_19_164)">
<path d="M64.1071 0H4.03107C1.88107 0 0.138153 1.75377 0.138153 3.91716V88.0828C0.138153 90.2462 1.88107 92 4.03107 92H64.1071C66.2571 92 68 90.2462 68 88.0828V3.91716C68 1.75377 66.2571 0 64.1071 0Z" fill="#114488"/>
<path opacity="0.39" d="M58.3287 6.1333H8.99677C7.24625 6.1333 5.82718 7.56121 5.82718 9.32263V76.1351C5.82718 77.8965 7.24625 79.3244 8.99677 79.3244H58.3287C60.0792 79.3244 61.4983 77.8965 61.4983 76.1351V9.32263C61.4983 7.56121 60.0792 6.1333 58.3287 6.1333Z" fill="white"/>
<path d="M37.2509 85.9607C37.2509 87.8416 35.7351 89.3668 33.8659 89.3668C31.9966 89.3668 30.4809 87.8416 30.4809 85.9607C30.4809 84.0798 31.9966 82.5547 33.8659 82.5547C35.7351 82.5547 37.2509 84.0798 37.2509 85.9607Z" fill="white"/>
<path opacity="0.05" d="M7.24943 73.6533C27.4089 53.3683 47.5683 33.0833 67.7277 12.7943V3.92546C67.7318 1.76243 65.9885 0.00830078 63.8389 0.00830078H3.89291C1.74328 0.00830078 0 1.76243 0 3.92546V80.9479L7.24943 73.6533Z" fill="black"/>
</g>
<defs>
<clipPath id="clip0_19_164">
<rect width="68" height="92" fill="white"/>
</clipPath>
</defs>
</svg>
