<svg xmlns="http://www.w3.org/2000/svg" version="1.1" xmlns:xlink="http://www.w3.org/1999/xlink" xmlns:svgjs="http://svgjs.dev/svgjs" width="512.05" height="512"><svg xmlns="http://www.w3.org/2000/svg" id="SvgjsSvg1003" viewBox="0 0 512.05 512"><defs><style>.cls-1{fill:#bc75e5;}.cls-1,.cls-2,.cls-3,.cls-4{stroke-width:0px;}.cls-2{fill:#ff687a;}.cls-3{fill:#47bca9;}.cls-4{fill:#8198c7;}</style></defs><g id="SvgjsG1002"><path class="cls-2" d="M414.79,353.25c-24.92,0-49.83-9.48-68.8-28.45-18.38-18.37-28.5-42.81-28.5-68.8s10.12-50.43,28.5-68.8c37.92-37.94,99.65-37.94,137.6,0,37.94,37.94,37.94,99.66,0,137.6-18.97,18.97-43.88,28.45-68.8,28.45ZM414.79,213c-11.01,0-22.03,4.2-30.42,12.58-8.13,8.12-12.6,18.92-12.6,30.42s4.47,22.29,12.6,30.41h0c16.77,16.77,44.06,16.77,60.83,0,16.77-16.77,16.77-44.06,0-60.83-8.38-8.38-19.4-12.58-30.42-12.58Z"></path><path class="cls-1" d="M256.04,512c-24.91,0-49.83-9.48-68.8-28.45-18.38-18.38-28.5-42.81-28.5-68.8s10.12-50.43,28.5-68.8c18.37-18.38,42.8-28.5,68.8-28.5s50.42,10.12,68.8,28.5c37.94,37.94,37.94,99.66,0,137.6-18.97,18.97-43.89,28.45-68.8,28.45ZM256.05,371.73c-11.49,0-22.29,4.47-30.42,12.6-8.13,8.13-12.6,18.93-12.6,30.42s4.47,22.29,12.6,30.42c16.77,16.77,44.06,16.77,60.84,0,16.77-16.77,16.77-44.06,0-60.83-8.12-8.13-18.93-12.6-30.42-12.6Z"></path><path class="cls-4" d="M256.05,194.55c-25.99,0-50.42-10.12-68.8-28.5h0s0,0,0,0c-18.38-18.37-28.5-42.81-28.5-68.8s10.12-50.42,28.5-68.8c37.94-37.93,99.66-37.94,137.6,0,37.94,37.94,37.94,99.67,0,137.6-18.38,18.38-42.81,28.5-68.8,28.5ZM256.05,54.26c-11.02,0-22.03,4.19-30.42,12.58-8.13,8.12-12.6,18.93-12.6,30.42s4.47,22.29,12.6,30.42h0c8.12,8.13,18.92,12.6,30.42,12.6s22.29-4.47,30.42-12.6c16.77-16.77,16.77-44.06,0-60.84-8.38-8.38-19.4-12.57-30.42-12.57Z"></path><path class="cls-3" d="M97.3,353.3c-25.99,0-50.42-10.12-68.8-28.5h0s0,0,0,0C10.12,306.42,0,281.99,0,256s10.12-50.43,28.5-68.8c18.37-18.38,42.8-28.5,68.8-28.5s50.42,10.12,68.8,28.5c37.94,37.94,37.94,99.66,0,137.6-18.38,18.38-42.81,28.5-68.8,28.5ZM97.3,212.98c-11.49,0-22.29,4.47-30.42,12.6s-12.6,18.93-12.6,30.42,4.47,22.29,12.6,30.41h0c8.12,8.13,18.92,12.6,30.42,12.6s22.29-4.47,30.42-12.6c16.77-16.77,16.77-44.06,0-60.83-8.12-8.13-18.93-12.6-30.42-12.6Z"></path></g></svg><style>@media (prefers-color-scheme: light) { :root { filter: none; } }
@media (prefers-color-scheme: dark) { :root { filter: none; } }
</style></svg>