<svg width="80" height="80" viewBox="0 0 80 80" fill="none" xmlns="http://www.w3.org/2000/svg">
<g clip-path="url(#clip0_494_538)">
<path d="M33.1523 46.8478L69.1317 10.8818" stroke="#47BCA9" stroke-width="2" stroke-miterlimit="10"/>
<path d="M50.9019 29.3382H60.9302L76.7862 13.4822H66.5311L50.9019 29.3382Z" stroke="#47BCA9" stroke-width="2" stroke-miterlimit="10"/>
<path d="M50.6753 29.0982V19.0698L66.5313 3.21387V13.4822L50.6753 29.0982Z" stroke="#47BCA9" stroke-width="2" stroke-miterlimit="10"/>
<path d="M61.0234 32.2988C67.3044 44.2474 65.4241 59.3566 55.3691 69.3983C43.007 81.7603 22.9637 81.7603 10.6016 69.3983C-1.76044 57.0362 -1.76044 36.9929 10.6016 24.6308C20.3766 14.8559 34.9523 12.8155 46.741 18.4965" stroke="#47BCA9" stroke-width="2" stroke-miterlimit="10"/>
<path d="M49.9952 34.1123C56.3563 42.4737 55.7162 54.4624 48.0749 62.1036C39.7402 70.4384 26.2313 70.4384 17.8965 62.1036C9.56183 53.7689 9.56183 40.26 17.8965 31.9253C25.5512 24.2707 37.5532 23.6439 45.9279 30.0316" stroke="#47BCA9" stroke-width="2" stroke-miterlimit="10"/>
<path d="M44.0075 39.4998C47.5681 44.6873 47.0347 51.8485 42.4206 56.4493C37.2064 61.6635 28.765 61.6635 23.5508 56.4493C18.3366 51.2351 18.3366 42.7937 23.5508 37.5795C28.1649 32.9654 35.3127 32.432 40.5136 35.9925" stroke="#47BCA9" stroke-width="2" stroke-miterlimit="10"/>
</g>
<defs>
<clipPath id="clip0_494_538">
<rect width="80" height="80" fill="white"/>
</clipPath>
</defs>
</svg>
